<svg width="24" height="24" viewBox="0 0 24 24" fill="none" xmlns="http://www.w3.org/2000/svg">
<path d="M2 8.56246V7.93746C2 7.41968 2.41973 6.99996 2.9375 6.99996H17V5.12496C17 4.29031 18.0117 3.87332 18.6004 4.46203L21.7254 7.58703C22.0915 7.95316 22.0915 8.54676 21.7254 8.91285L18.6004 12.0378C18.0139 12.6243 17 12.2131 17 11.375V9.49996H2.9375C2.41973 9.49996 2 9.08023 2 8.56246ZM21.0625 14.5H7V12.625C7 11.7924 5.98977 11.3718 5.39957 11.962L2.27457 15.087C1.90848 15.4532 1.90848 16.0468 2.27457 16.4128L5.39957 19.5378C5.9866 20.1248 7 19.7123 7 18.875V17H21.0625C21.5803 17 22 16.5802 22 16.0625V15.4375C22 14.9197 21.5803 14.5 21.0625 14.5Z" fill="#56657F"/>
</svg>
