<svg width="24" height="24" viewBox="0 0 24 24" fill="none" xmlns="http://www.w3.org/2000/svg">
<path d="M11.7348 8.25839L5.3336 13.5306V19.2207C5.3336 19.3681 5.39212 19.5094 5.4963 19.6136C5.60048 19.7177 5.74178 19.7763 5.88911 19.7763L9.77978 19.7662C9.92663 19.7655 10.0672 19.7066 10.1708 19.6025C10.2744 19.4984 10.3325 19.3575 10.3325 19.2107V15.8877C10.3325 15.7403 10.391 15.599 10.4952 15.4949C10.5994 15.3907 10.7407 15.3322 10.888 15.3322H13.1101C13.2574 15.3322 13.3987 15.3907 13.5029 15.4949C13.6071 15.599 13.6656 15.7403 13.6656 15.8877V19.2082C13.6654 19.2813 13.6796 19.3538 13.7074 19.4214C13.7352 19.489 13.7761 19.5504 13.8277 19.6022C13.8793 19.6539 13.9406 19.695 14.0081 19.723C14.0756 19.7511 14.148 19.7655 14.2211 19.7655L18.1104 19.7763C18.2577 19.7763 18.399 19.7177 18.5032 19.6136C18.6074 19.5094 18.6659 19.3681 18.6659 19.2207V13.5267L12.266 8.25839C12.1908 8.19774 12.0971 8.16467 12.0004 8.16467C11.9038 8.16467 11.8101 8.19774 11.7348 8.25839ZM21.8462 11.8418L18.9437 9.44927V4.64027C18.9437 4.52977 18.8998 4.4238 18.8216 4.34566C18.7435 4.26753 18.6375 4.22363 18.527 4.22363H16.5827C16.4722 4.22363 16.3663 4.26753 16.2881 4.34566C16.21 4.4238 16.1661 4.52977 16.1661 4.64027V7.16125L13.0577 4.60381C12.7593 4.35834 12.385 4.22412 11.9987 4.22412C11.6124 4.22412 11.2381 4.35834 10.9398 4.60381L2.1512 11.8418C2.10901 11.8767 2.07411 11.9195 2.04848 11.9679C2.02286 12.0162 2.00701 12.0692 2.00185 12.1237C1.9967 12.1782 2.00232 12.2331 2.01842 12.2854C2.03451 12.3378 2.06076 12.3864 2.09565 12.4286L2.981 13.5049C3.0158 13.5472 3.0586 13.5822 3.10696 13.608C3.15532 13.6337 3.20828 13.6497 3.26282 13.6549C3.31735 13.6602 3.37239 13.6546 3.42477 13.6386C3.47716 13.6226 3.52587 13.5963 3.56811 13.5615L11.7348 6.83489C11.8101 6.77424 11.9038 6.74117 12.0004 6.74117C12.0971 6.74117 12.1908 6.77424 12.266 6.83489L20.4331 13.5615C20.4753 13.5964 20.5239 13.6226 20.5762 13.6387C20.6286 13.6548 20.6835 13.6604 20.738 13.6553C20.7925 13.6501 20.8455 13.6342 20.8938 13.6086C20.9422 13.583 20.985 13.5481 21.0199 13.5059L21.9052 12.4296C21.9401 12.3872 21.9662 12.3383 21.9821 12.2858C21.998 12.2332 22.0034 12.1781 21.9979 12.1234C21.9924 12.0688 21.9762 12.0158 21.9502 11.9675C21.9241 11.9191 21.8888 11.8764 21.8462 11.8418Z" fill="#56657F"/>
</svg>
