<svg width="24" height="24" viewBox="0 0 24 24" fill="none" xmlns="http://www.w3.org/2000/svg">
<path d="M12 2C11.4477 2 11 2.44772 11 3V4.07C9.24011 4.29352 7.60439 5.09553 6.34996 6.34996C5.09553 7.60439 4.29352 9.24011 4.07 11H3C2.44772 11 2 11.4477 2 12C2 12.5523 2.44772 13 3 13H4.07C4.29352 14.7599 5.09553 16.3956 6.34996 17.65C7.60439 18.9045 9.24011 19.7065 11 19.93V21C11 21.5523 11.4477 22 12 22C12.5523 22 13 21.5523 13 21V19.93C14.7599 19.7065 16.3956 18.9045 17.65 17.65C18.9045 16.3956 19.7065 14.7599 19.93 13H21C21.5523 13 22 12.5523 22 12C22 11.4477 21.5523 11 21 11H19.93C19.7065 9.24011 18.9045 7.60439 17.65 6.34996C16.3956 5.09553 14.7599 4.29352 13 4.07V3C13 2.44772 12.5523 2 12 2ZM11 6.08V7C11 7.55228 11.4477 8 12 8C12.5523 8 13 7.55228 13 7V6.09C15.5 6.5 17.5 8.5 17.92 11H17C16.4477 11 16 11.4477 16 12C16 12.5523 16.4477 13 17 13H17.91C17.5 15.5 15.5 17.5 13 17.92V17C13 16.4477 12.5523 16 12 16C11.4477 16 11 16.4477 11 17V17.91C8.5 17.5 6.5 15.5 6.08 13H7C7.55228 13 8 12.5523 8 12C8 11.4477 7.55228 11 7 11H6.09C6.5 8.5 8.5 6.5 11 6.08ZM12 11C11.7348 11 11.4804 11.1054 11.2929 11.2929C11.1054 11.4804 11 11.7348 11 12C11 12.2652 11.1054 12.5196 11.2929 12.7071C11.4804 12.8946 11.7348 13 12 13C12.2652 13 12.5196 12.8946 12.7071 12.7071C12.8946 12.5196 13 12.2652 13 12C13 11.7348 12.8946 11.4804 12.7071 11.2929C12.5196 11.1054 12.2652 11 12 11Z" fill="#56657F"/>
</svg>
